<svg xmlns="http://www.w3.org/2000/svg" id="label_age_18" width="19.999" height="19.999" viewBox="0 0 19.999 19.999">
    <defs>
        <style>
            .cls-2{fill:#fff}
        </style>
    </defs>
    <path id="패스_4370" fill="#cd1327" d="M604.743 321.257h-15.49A2.253 2.253 0 0 1 587 319v-15.487a2.254 2.254 0 0 1 2.254-2.255h15.49a2.254 2.254 0 0 1 2.256 2.255V319a2.254 2.254 0 0 1-2.254 2.254" transform="translate(-586.999 -301.258)"/>
    <g id="그룹_5409" transform="translate(3.136 3.108)">
        <path id="패스_4371" d="M607.78 334.547v-9.94h-1.1l1.426-3.842h2.759v13.782z" class="cls-2" transform="translate(-606.679 -320.766)"/>
        <path id="패스_4372" d="M647.811 328.9a1.417 1.417 0 0 0-.125-.433.939.939 0 0 0-.244-.307 2.357 2.357 0 0 0-.387-.252l-.92-.433.92-.488a1.593 1.593 0 0 0 .586-.559 1.94 1.94 0 0 0 .171-.92v-4.437a.308.308 0 0 0-.308-.308h-7.664a.308.308 0 0 0-.308.308v4.437a1.953 1.953 0 0 0 .172.91 1.561 1.561 0 0 0 .586.569l.92.488-.92.433a1.324 1.324 0 0 0-.622.594 2.582 2.582 0 0 0-.153 1.011v4.725a.308.308 0 0 0 .308.308h7.719a.308.308 0 0 0 .308-.308v-4.725a4.41 4.41 0 0 0-.039-.613zm-3.03 2.8a.308.308 0 0 1-.308.308h-1.584a.308.308 0 0 1-.308-.308v-2.758a.308.308 0 0 1 .308-.308h1.584a.308.308 0 0 1 .308.308zm0-5.676a.308.308 0 0 1-.308.308h-1.584a.308.308 0 0 1-.308-.308v-2.412a.308.308 0 0 1 .308-.308h1.584a.308.308 0 0 1 .308.308z" class="cls-2" transform="translate(-634.281 -320.766)"/>
    </g>
</svg>
