<svg xmlns="http://www.w3.org/2000/svg" width="56.729" height="15.997" viewBox="0 0 56.729 15.997">
    <defs>
        <clipPath id="clip-path">
            <path id="사각형_2854" data-name="사각형 2854" style="fill:none" d="M0 0h19.136v14.997H0z"/>
        </clipPath>
        <style>
            .cls-4{fill:#fff;stroke:transparent;stroke-miterlimit:10}
        </style>
    </defs>
    <g id="TVING_ONLY" data-name="TVING ONLY" transform="translate(0 .5)">
        <g id="그룹_5643" data-name="그룹 5643">
            <g id="그룹_5449" data-name="그룹 5449" style="clip-path:url(#clip-path)">
                <path id="패스_2271" data-name="패스 2271" d="m13.552 0-3.2 9.948a.273.273 0 0 1-.533-.084V0H0v4.475h4.744V15h9.322l5.07-15z" style="fill:#00d8ea"/>
            </g>
        </g>
        <g id="그룹_5645" data-name="그룹 5645" transform="translate(22.294)">
            <path id="패스_2298" data-name="패스 2298" class="cls-4" d="M81.306 15.7v6.6c0 2.655-1.413 4.207-3.928 4.207S73.5 24.952 73.5 22.3v-6.6c0-2.639 1.382-4.192 3.881-4.192 2.53 0 3.928 1.552 3.928 4.192m-2.624-.435c0-.916-.5-1.506-1.258-1.506a1.334 1.334 0 0 0-1.3 1.506v7.483a1.331 1.331 0 0 0 1.289 1.506c.76 0 1.273-.59 1.273-1.506z" transform="translate(-73.497 -11.508)"/>
            <path id="패스_2299" data-name="패스 2299" class="cls-4" d="M108.973 16.138v-4.145h2.453v14.671h-2.546l-2.655-8.864h-.14l.093 3.338v5.527h-2.468V11.993h2.841l2.36 7.9h.155z" transform="translate(-94.051 -11.838)"/>
            <path id="패스_2300" data-name="패스 2300" class="cls-4" d="M140.013 24.444v2.22h-6.024V11.993h2.593v12.451z" transform="translate(-114.652 -11.838)"/>
            <path id="패스_2301" data-name="패스 2301" class="cls-4" d="m155.23 16.183 1.133-4.223 2.857-.016-3.385 10.156v4.533h-2.577v-4.6L149.9 11.944l2.934.016 1.149 4.223.528 2h.2z" transform="translate(-125.479 -11.805)"/>
        </g>
    </g>
</svg>
