<svg xmlns="http://www.w3.org/2000/svg" width="79" height="24" viewBox="0 0 79 24">
    <defs>
        <clipPath id="rtj0jtrkja">
            <path data-name="사각형 4471" transform="translate(-1 -3.5)" style="fill:none" d="M0 0h79v24H0z"/>
        </clipPath>
    </defs>
    <g data-name="그룹 11743" style="clip-path:url(#rtj0jtrkja)" transform="translate(1 3.5)">
        <path data-name="패스 4847" d="M19.941 4.583c0-3.1-3.279-4.583-7.176-4.583C8.6 0 4.785 1.837 3.383 4.706a5.421 5.421 0 0 0-.6 2.477 3.723 3.723 0 0 0 .6 2.085 3.679 3.679 0 0 0 3.258 1.445c1.918 0 3.464-1.053 3.464-2.91a.511.511 0 0 0-.577-.516c-.495 0-.618.351-.6.516A2.313 2.313 0 0 1 6.6 10.424c-1.711 0-2.433-1.466-2.433-3.034 0-3.2 2.413-5.305 4.908-6.234a10.112 10.112 0 0 1 3.67-.64c2.846 0 5.155 1.094 5.155 4a4.866 4.866 0 0 1-4.5 4.706l.1-.33a17.362 17.362 0 0 1 2.124-5.2 2.243 2.243 0 0 1 .268-.372l-.144-.165a4.15 4.15 0 0 0-.619.434c-4.7 3.654-4.846 13.975-11.094 13.975a3.215 3.215 0 0 1-.639-.041 2.187 2.187 0 0 1-2-2.312c0-.227.083-.557.083-.743a.63.63 0 0 0-.619-.661H.805c-.557 0-.784.454-.8 1.073-.041 1.837 1.3 2.89 3.382 3.1.227 0 .454.021.7.021 4.887 0 7.877-3.695 9.156-8.174a11.948 11.948 0 0 0 1.9-.413c2.268-.619 4.8-2.147 4.8-4.83" style="fill:#fff;fill-rule:evenodd"/>
        <path data-name="패스 4848" d="M124.235 37.278A11.252 11.252 0 0 1 122.4 41.8c-.371.557-.7.7-.989.7-.412 0-.515-.33-.454-.8a11.025 11.025 0 0 1 1.752-4.189c.454-.619.742-.867 1.093-.867.33 0 .433.289.433.64m-19.007 4.746c-.247 0-.433-.083-.433-.413a7.65 7.65 0 0 1 1.587-3.549 3.086 3.086 0 0 1 2.268-1.444l-1.092 2.435c-.825 1.878-1.67 2.971-2.33 2.971m-10.72 0c-.247 0-.412-.083-.412-.413a8.1 8.1 0 0 1 1.587-3.549 3.086 3.086 0 0 1 2.268-1.444l-1.072 2.435c-.825 1.836-1.711 2.971-2.371 2.971m48.836-8.274h-1.732l-.371.908-.68 1.527h-.8l-.247.516h.845l-1.01 2.208c-.722 1.568-1.835 3.1-2.474 3.1-.144 0-.227-.062-.227-.206a1.993 1.993 0 0 1 .186-.66c.206-.475.536-1.156.783-1.671a8.32 8.32 0 0 0 .928-2.414.964.964 0 0 0-1.051-1.011 3.069 3.069 0 0 0-2.165 1.176l.433-1.032h-1.632l-1.319 2.992c-.516 1.061-1.588 2.811-2.268 2.811-.144 0-.206-.083-.206-.227a1.249 1.249 0 0 1 .1-.371c.062-.124.845-1.981.845-1.981l1.422-3.281h-1.732l-1.4 3.2c-.412.99-1.5 2.662-2.206 2.662a.215.215 0 0 1-.247-.206v-.041a2.227 2.227 0 0 1 .227-.722l.722-1.609 1.5-3.281h-1.732l-.33.743a1.691 1.691 0 0 1-1.381 1.094c-.33 0-.495-.124-.556-.248a1.705 1.705 0 0 0-1.835-1.692 3.687 3.687 0 0 0-3.113 1.878 8.363 8.363 0 0 0-1.031 2.27c-.618 1.011-1.258 1.8-1.773 1.8a.2.2 0 0 1-.227-.227 2.547 2.547 0 0 1 .227-.7l1.134-2.414a4.927 4.927 0 0 0 .536-1.713.873.873 0 0 0-.948-.887 3.455 3.455 0 0 0-2.412 1.238 1.144 1.144 0 0 0 .041-.371.772.772 0 0 0-.886-.867 3.059 3.059 0 0 0-2.206 1.238l.453-1.114h-1.567l-1.34 3.012c-.639 1.4-1.649 2.806-2.226 2.806-.124 0-.206-.062-.206-.227a5.3 5.3 0 0 1 .412-1.217l1.773-4c.124-.31-.722-.5-1.794-.5a4.985 4.985 0 0 0-3.072 1.259 2.747 2.747 0 0 1-1.237.722c-.1 0-.144-.062-.144-.124 0-.248.577-.928.577-1.465 0-.248-.124-.392-.454-.392a3.066 3.066 0 0 0-1.917 1.217l.454-1.094h-1.546l-1.312 3.009c-.639 1.4-1.69 2.889-2.247 2.889-.144 0-.227-.083-.227-.248a4.805 4.805 0 0 1 .454-1.279l1.752-4c.124-.31-.722-.5-1.793-.5a5.244 5.244 0 0 0-3.937 2.187 6.535 6.535 0 0 0-1.546 3.487 1.19 1.19 0 0 0 1.278 1.341 3.014 3.014 0 0 0 2.185-1.341 2.091 2.091 0 0 0-.062.351c0 .578.227.99.928.99a3.069 3.069 0 0 0 2.085-1.339l-.515 1.217h1.67L101.6 39.2c.536-1.217 1.154-1.836 1.319-1.836.062 0 .1.021.1.062 0 .124-.268.475-.268.784s.165.557.639.557a2.27 2.27 0 0 0 1.113-.392 6.182 6.182 0 0 0-1.422 3.343 1.172 1.172 0 0 0 1.278 1.341 3.3 3.3 0 0 0 2.206-1.444 2.8 2.8 0 0 0-.041.413.947.947 0 0 0 .969 1.032c.722 0 1.278-.454 2-1.32l-.536 1.2h1.732l1.567-3.57c.68-1.547 1.629-2.373 2.082-2.373.1-.021.206.083.227.186v.041a2.122 2.122 0 0 1-.144.516l-2.268 5.22h1.773l1.587-3.631c.7-1.568 1.464-2.332 2.02-2.332.185 0 .247.083.247.268a1.7 1.7 0 0 1-.144.578l-1.546 3.3a2.835 2.835 0 0 0-.268.99c0 .516.268.949 1.051.949.989 0 1.752-.763 2.618-1.878v.227a1.7 1.7 0 0 0 1.9 1.692c1.587 0 2.845-1.073 3.628-2.806a6.523 6.523 0 0 0 .557-1.94 1.033 1.033 0 0 0 .556.1 1.327 1.327 0 0 0 .742-.186l-.268.6c-.309.66-.66 1.382-.928 2a3.2 3.2 0 0 0-.309 1.156.98.98 0 0 0 1.051 1.073 3.57 3.57 0 0 0 2.35-1.589 2.614 2.614 0 0 0-.062.578c0 .516.165 1.011.866 1.011a2.931 2.931 0 0 0 2.1-1.362l-.515 1.2h1.732l1.381-3.157c.783-1.775 1.567-2.848 2.309-2.848a.245.245 0 0 1 .247.206v.062a8.864 8.864 0 0 1-.825 1.919 36.16 36.16 0 0 0-.8 1.774 2.933 2.933 0 0 0-.309 1.176.889.889 0 0 0 .969.97 3.747 3.747 0 0 0 2.556-1.713 3.386 3.386 0 0 0-.185 1.094 1.351 1.351 0 0 0 1.443 1.506 2.735 2.735 0 0 0 1.567-.516 7.384 7.384 0 0 0 1.629-1.774l-.309-.289a6.761 6.761 0 0 1-1.34 1.486 1.452 1.452 0 0 1-.886.351c-.371 0-.6-.186-.6-.64a5.959 5.959 0 0 1 .557-1.919s.474-1.073.928-2.084c.371-.867.742-1.692.8-1.857h1.134l.227-.516h-1.113z" transform="translate(-76.905 -28.099)" style="fill:#fff;fill-rule:evenodd"/>
        <path data-name="패스 4849" d="M409.627 30.163 411.2 26.5h-1.864l-1.592 3.663H403.8l-.67 1.528h3.959l-1.571 3.621h1.864l1.592-3.621h3.959l.649-1.528z" transform="translate(-335.586 -22.063)" style="fill:#fff;fill-rule:evenodd"/>
    </g>
</svg>
